<svg xmlns="http://www.w3.org/2000/svg" width="5109" height="4978.316" viewBox="0 0 5109 4978.316">
  <path id="icon-players" class="cls-1" d="M2454,582c159.25-2.485,298.01,27.165,413,72,326.35,127.249,560.68,345.776,688,671,25.59,65.36,43.53,136.57,60,211q7.5,54.495,15,109c6.16,36.15,8.02,108.54,2,145q-1.005,25.995-2,52-6.495,48.495-13,97c-17.93,88.9-39.92,172.44-72,248-137.91,324.89-388.78,557.52-741,668-70.07,21.98-145.82,30.03-225,44q-43.995,2.505-88,5-28.995-1.005-58-2c-35.43-5.85-70.32-2.83-101-9q-43.995-6.495-88-13c-87.63-22.09-167.81-46.21-242-79-318.23-140.65-547.87-397.46-647-757-47.24-171.36-55.51-395.7-7-573q10.995-42,22-84c26.31-67.73,48.16-135.52,83-195,143.94-245.726,334.6-425.713,615-535,78.41-30.561,163.32-45.375,256-64l83-9Zm-33,158-44,2-77,8c-68.76,12.935-131.73,25.286-190,48-249.02,97.075-482.88,328.37-580,577-23.64,60.53-36.43,125.31-50,197-24.67,130.3-10.33,334.48,20,444,31.12,112.37,76.34,207.41,136,291,23.72,33.23,52.85,61.77,78,93,19.94,24.77,43.22,50.06,68,70q37.995,35.49,76,71c91.28,71.12,191.26,130.74,316,169,53.62,16.44,111.23,21.66,172,32l71,3c22.64,3.62,56.01,4.8,79,1q52.5-1.995,105-4c63.5-10.71,123.39-16.54,179-34,112.38-35.27,205.94-88.63,290-152,20.97-15.81,38.79-35.73,59-52,25.84-20.81,52.2-45.15,73-71q32.49-34.5,65-69c53.76-68.41,103.23-141.51,140-227,27.33-63.54,42.63-132.71,58-209,27.1-134.51,12.81-347.13-19-462-51.4-185.61-146.07-315.09-264-433-113.31-113.294-239.07-205.456-414-258C2668.23,745.031,2551.87,739.9,2421,740Zm1239,82c504.58-7.339,846.43,292.39,991,645,36.32,88.59,51.57,172.16,71,281q1.995,38.49,4,77c7.19,45.12,1.44,104.86-6,145q-5.505,40.995-11,82c-14.8,66.2-31.86,128.78-55,187-117.05,294.45-347.8,507.56-661,606-64.04,20.13-132.92,27.48-206,40q-27.495,1.005-55,2c-29.08,4.64-68.24,3.75-97-1l-52-3c-72.52-13.62-141.9-21.94-204-44-21.26-7.55-105.74-26.58-94-57,7.19-18.62,87.56-90.48,109-95,20.66-4.35,40.05,6.82,55,11,33.82,9.45,69.75,13.92,106,21,94.12,18.38,258.88,9.93,342-11,106.37-26.79,196.21-63.21,274-118,34.24-24.12,63.99-53.23,96-79,23.9-19.25,47.76-42.1,67-66q27.99-30.495,56-61c59.79-78.87,108.13-160.79,141-268,13.14-42.84,20.27-90.08,29-139q1.995-36,4-72c4.67-29.28,4.84-70.74,0-100q-1.995-36-4-72c-13.94-78.71-26.72-149.71-54-214-90.28-212.79-287.35-401.86-506-487-49.3-19.2-103.2-29.09-161-40l-88-8c-31.96-5.277-102.65-4.036-134,1-17.27,2.774-45.34,6.414-61,0-20.96-8.586-33.11-31.947-46-49-14.94-19.767-57.35-45.681-49-79,32.88-23.988,94.47-24.288,143-32Zm966,2177c149.93-2.16,293.91,48.65,389,105,53.91,31.95,99.22,65.36,146,103,40,32.18,71.03,80.72,101,123,98.99,139.63,166.37,308.72,215,499,18.35,71.79,25.76,142.38,41,219,11.31,56.86,12.76,121.78,23,182q1.5,28.995,3,58,3,52.995,6,106,0.495,38.49,1,77-0.495,33.495-1,67c-5.09,30.8-2.64,56.5-8,85-12.82,68.23-25.77,131.53-50,188-86.38,201.3-233.47,318.48-455,385-46.94,14.09-97.91,18.72-149,28-60.55,11-133.15,4.98-200,5-25.5.01-65.42,2.8-60-27,4.43-24.34,44.68-125,61-134,11.83-6.52,32.14-5,50-5q68.49-.495,137-1l80-9c67-14.01,126.47-31.8,177-62,101.39-60.61,190.19-155.17,229-278,20.7-65.51,26-138.96,26-227q-1.005-42.495-2-85-2.505-76.485-5-153-1.995-27.495-4-55c-12.82-73.8-14.41-146.64-30-217-18.03-81.39-33.3-161.85-57-237-73.41-232.81-211.3-447.87-428-537-44.49-18.3-197.7-59.3-260-34-23.04,9.36-42.93,25.34-63,38q-49.995,31.5-100,63c-19.63,12.35-39.82,32.62-64,39-9.18,2.42-19.93-.09-26-4-11.29-7.27-72.73-76.96-77-89-10.68-30.08,56.43-60.95,74-72,65.39-41.12,128.06-91.91,201-124q24.99-8.505,50-17Zm-3182,58c102.55-2.4,153.73,39.55,215,78q119.49,75.99,239,152c118.5,70.97,261.57,114.42,418,146,53.28,10.76,113.36,3.4,171,13q36.99-1.005,74-2,28.5-1.005,57-2c39.6-6.57,80.11-8.5,116-17,85.8-20.31,158.69-42.03,232-71,41.69-16.48,82.25-29.56,119-51,61.76-36.03,120.04-74.26,180-112,77.68-48.9,193.58-154.83,328-132q48.99,7.005,98,14c123.02,30.5,226.71,67.58,320,126,251.93,157.76,391.51,467.28,475,794,21.64,84.66,30.01,168.84,48,259,13.19,66.14,14.23,141.7,26,212q3,57.495,6,115l3,72q0.495,33.99,1,68c0.01,63.41-1.46,119.86-12,174-27.17,139.53-69.19,255.04-138,352-98.62,138.96-251.46,234.72-440,283-161.66,41.4-382.26,31-585,31H1571c-187.25.01-386.17,7.95-535-30-381.277-97.21-593.979-364.27-594-841q3-86.985,6-174,3-38.49,6-77,5-48.99,10-98,17-107.49,34-215,16-74.49,32-149c44.034-147.42,84.92-288.03,155-408,21.019-35.98,37.432-71.7,59-106,100.9-160.44,238.759-272.54,427-346,52.94-20.66,111.3-33.75,172-46Zm2099,156c-15.43,5.72-33.01,2.4-46,8-38.28,16.51-71.8,44.41-106,66-73.57,46.44-145.19,93.64-221,138-119.42,69.88-261.23,110.74-412,148-49.53,12.24-105.4,16.57-160,26l-70,3q-44.49-.495-89-1-60-7.005-120-14c-129.89-28.41-246.17-59.69-355-106-38.85-16.53-77.59-30.35-113-51-77.65-45.28-150.87-92.72-226-140-38.01-23.92-76.17-59.17-122-73-23.24-7.01-68.01-5.18-93-1q-29.49,2.505-59,5c-52.15,10.13-100.61,20.3-145,38-291.835,116.38-447.319,423.42-531,751-23.535,92.13-33.526,189.32-52,287q-5.5,58.5-11,117-4,94.485-8,189-2,65.49-4,131c-0.021,172.68,26.6,299.06,97,399,77.52,110.05,185.707,196.49,330,240,92.01,27.75,207.24,27,328,27H3663c104.26,0.01,206.72,1.95,290-19,134.68-33.88,238.95-98.74,314-192,32.04-39.82,66.76-76.62,89-127,36.78-83.32,55-176.8,55-299q-0.495-42-1-84-1.995-60.495-4-121-1.005-39-2-78c-8.2-50.17-4.84-100.97-13-148-10.16-58.52-11.2-111.85-23-168-31.89-151.76-63.27-295.51-118-423a1188.257,1188.257,0,0,0-132-231q-31.995-36-64-72C3947.67,3305.85,3780.05,3213.01,3543,3213Z" transform="translate(-442 -581.844)"/>
</svg>