<svg xmlns="http://www.w3.org/2000/svg" width="5118" height="5120.436" viewBox="0 0 5118 5120.436">
  <path id="icon-balls" class="cls-1" d="M4040,441c155.8-1.963,294.96,14.854,416,51,463.43,138.4,793.87,422.981,976,842,44.05,101.35,76.24,210.3,103,332,8.97,40.8,8.91,79.55,16,123,6.9,42.29,6.99,89.15,7,137v52c-9.79,60.66-4.77,120.83-16,177-25.07,125.38-51.83,238.1-95,343-20.34,49.42-42.69,100.06-69,145-10.18,17.39-33.09,41.41-27,72,6.41,32.23,26.64,60.05,39,88q25.5,63.495,51,127c40.61,102.01,65.47,216.46,89,334,11.81,59,10.9,114.74,21,178,6.99,43.8,7,91.27,7,140q-0.495,30-1,60v40q-4.5,61.995-9,124c-17.81,102.59-27.2,203.58-55,296-26.23,87.2-52.01,172.9-86,253-200.17,471.72-557.99,838.06-1028,1040q-161.34,69.33-348,116c-68.29,17.16-136.1,20.4-210,34-35.17,6.47-74.88,4.78-113,11q-23.505.495-47,1c-35.71,5.64-86.93,5.84-123,0q-30.495-.495-61-1-76.995-7.995-154-16c-96.55-18.11-190.32-32.66-278-60-191.49-59.7-359.16-138.63-513-235-62.34-39.05-119.07-86.63-176-131-75.85-59.12-150.84-126.22-211-201q-27-29.49-54-59c-69.38-88.97-132.6-178.81-192-279-17.29-29.16-36.92-59.15-51-91-55.56-125.69-112.6-252.55-150-399-13.7-53.65-22.71-106.73-34-163-5.53-27.57-3.83-61.83-18-81-16.29-22.05-58.36-22.38-89-30-61.58-15.31-119.68-30.07-176-52-160.94-62.66-293.24-145.8-418-243-184.576-143.8-337.806-366.52-430-603-24.552-62.98-38.229-126.63-56-197-14.6-57.82-20.292-124.75-31-189q-1-35.49-2-71c-6.581-41.84-4.459-98.29,2-138q2.5-39.99,5-80c15.915-87.07,28.43-171.7,52-250,53.588-178.01,136.818-325.21,233-460q42-50.49,84-101c46.924-58.53,109.593-109.77,169-156,145.04-112.86,306.67-202.99,506-263,60.29-18.151,118.8-25.62,186-38,34.24-6.308,71.54-6.881,109-13l56-2c26.85-4.224,66.1-4.362,93,0l78,4c62.65,10.5,123.3,12.625,181,27,147.57,36.76,282.97,82.22,399,151l102,63c10.38,6.91,25.44,24.17,46,19,19.14-4.81,26.83-28.64,36-44l72-111c84.51-119.236,188.85-227.33,305-315,160.32-121,342.9-211.552,568-269,67.13-17.131,138.01-21.334,212-34Zm-25,169-125,11c-79.11,14.583-152.99,27.883-223,50-275.48,87.028-492.8,249.736-649,457-50.42,66.9-100.21,137.77-136,219-20.62,46.8-43.49,96.02-63,146-22.26,57.01-33.22,118.87-49,182-7.4,29.59-24.23,109.71-7,134,25.38,8.1,48.06-8.8,67-17,49.9-21.6,103.94-38.71,156-59,96.5-37.62,206.88-53.79,317-76q54.495-6.495,109-13,71.49-4.005,143-8c29.05-4.82,78.25-2.6,106,2,43.65,7.23,87.69-.31,128,7,24.53,4.45,69.49,13.67,90,1,19.81-12.24,26.25-46.67,36-69,21.31-48.77,53.24-92.92,84-133,85.57-111.51,211.75-186.85,374-222,55.77-12.08,140.64-18.89,204-7,36.52,6.85,69.97,11.89,103,22,208.92,63.98,356.76,214.72,422,423,25.35,80.94,39.81,208.59,18,308-13.98,63.73-33.74,121.3-60,173-13.31,26.2-39.04,50.26-45,81-5.27,27.19,31.91,57.26,44,71a2014.106,2014.106,0,0,1,129,163c8.8,12.34,40.63,66.51,64,50,24.28-17.16,60.24-130.62,72-168,22.61-71.86,38.38-149.6,54-232q2.505-28.995,5-58c6.44-38.24,12-105.64,5-148-6.08-36.79-.17-70.57-6-105-11.64-68.75-17.84-133.21-35-195-142.21-511.93-503.2-850.351-1040-969C4218.92,611.532,4121.62,609.952,4015,610ZM1791,1128l-42,3q-42.99,6.495-86,13c-76.22,16.43-148.94,33.07-216,59-292.76,113.19-510.824,301.19-661,557-45.977,78.32-83.5,162.2-114,257-5.191,16.13-31.008,80.65-20,100,11.686,20.54,82.732-10.77,98-17,94.841-38.69,187.494-81.11,272-131,257.33-151.91,489.42-349.65,662-586,40.43-55.37,79.8-109.45,117-169,12.02-19.25,39.26-44.47,34-75C1825.14,1128.56,1812.3,1127.54,1791,1128Zm276,9c-10,4.19-18.45,3.3-26,9-24.24,18.29-58.03,96.69-76,127-49.85,84.09-107.03,164.3-166,240-190.68,244.75-426.09,448.25-701,609-107.661,62.95-227.413,110.35-350,158-38.379,14.92-118.28,23.45-132,60-11.517,30.68-6.66,112.2-1,147,7.828,48.12,5.636,91.36,15,136,14.632,69.76,31.228,137.23,53,199,112.182,318.25,314.354,537.95,586,697,93.56,54.78,206.95,104.99,329,128,58.68,11.06,33.27-83.99,40-126q1.995-39.99,4-80c12.83-76.6,15.29-152.22,31-224q9.495-42,19-84c3.84-14.24,13.28-34.13,9-54-6.63-30.8-47.24-47.07-69-64-49.14-38.23-93.89-88.79-130-140-83.05-117.77-157.09-331.15-106-534,22.41-88.99,55.34-163.17,98-231,88.89-141.33,234.1-243.67,421-287,64.21-14.88,155.01-24.68,230-12,94.44,15.97,175.48,39.42,245,80q28.5,17.505,57,35c13.67,9.74,26.58,23.33,43,30,24.75,10.05,49.95-8.89,64-20,27.46-21.7,17.95-57.21,25-101,10.15-63.06,9.21-120.67,22-179,13.34-60.84,27.46-123.28,47-179,7.04-20.07,27.57-52.38,19-80-9.95-32.04-90.31-72.8-120-91-108.63-66.57-227.66-113.33-369-149C2143.6,1148.32,2106.98,1139.61,2067,1137Zm2393,242q-18,1.995-36,4-36.495,8.505-73,17c-98.87,31.17-176.47,90.99-232,166-12.21,16.49-69.86,91.42-51,119,13.12,19.18,102.92,36.16,131,45,95.64,30.12,180.13,74.32,268,109,46.54,18.37,96.87,7.96,120-25,5.85-8.33,10.39-19.91,13-31,13.35-56.72-30.79-92.5-72-100-17.1-3.11-35.49,1.65-49,4-46.29,8.04-80.09-20.52-92-48-41.21-95.1,82.25-143.89,173-124,121.14,26.55,247.36,144.09,206,308a276.3,276.3,0,0,1-45,96c-7.64,10.42-28.44,24.53-23,46,4.55,17.97,27.38,28.35,41,38,34.08,24.15,65.27,51.9,98,77,10.91,8.37,31.1,25.48,49,14,18.46-11.85,27.91-41.73,37-63,33.18-77.61,53.35-207.5,23-307C4883.74,1519.86,4728.53,1378.42,4460,1379Zm-878,426q-89.49,4.995-179,10c-127.92,23.29-252.82,35.61-362,78-105.08,40.8-209.81,76.02-302,130-315.72,184.87-528.41,397.98-714,713-55.92,94.92-91.91,203.53-134,312l-30,114c-71.53,258.76-70.71,634.05,5,888,26.26,88.07,47.07,166.99,81,246,174.02,405.29,497.42,747.8,899,925,69.51,30.67,145.19,63.92,222,88q81.99,21,164,42l138,21c50.61,9.63,112.22,4.14,169,13l76,3,165-9c121.99-20.91,236.87-36.38,344-70,519.75-163.14,921.38-538.81,1125-1018,46.22-108.77,79.43-227.42,107-354q12-79.995,24-160,1.5-35.49,3-71c9.58-61.24,10.87-140.39,1-202q-1.995-44.49-4-89-14.505-93.495-29-187c-26.41-105.08-54.37-205.19-91-299-173.3-443.82-534.44-800.83-968-985-100.51-42.69-210.03-72.4-324-101l-97-15C3785.69,1811.2,3682.3,1805.08,3582,1805ZM2053,1976q-28.5,1.995-57,4c-30.09,5.34-59.64,10.37-87,19-135.13,42.61-230.14,129.73-296,242-48.27,82.29-82.45,228.84-51,355,19.16,76.86,48.68,136.66,88,192,20.08,28.26,60.15,82.42,93,95,22.93,8.78,31.79-12.74,38-25q27-60.495,54-121c10.79-21.22,66.21-107.63,61-132-4.56-21.36-22.64-32.19-34-47-12.72-16.58-25.4-37.13-34-57-39.18-90.54-12.48-195.35,34-256,40.15-52.39,134.84-115.2,241-93q28.995,8.505,58,17c16.05,6.92,36.05,28.28,62,22,17.86-4.32,107.41-84.18,117-100,19.19-31.66-29.76-49.73-48-59C2226.32,1998.61,2151.58,1977.54,2053,1976Zm1878,342c117.2-2.02,218.97,21.06,303,54,238.67,93.55,407.07,257.18,501,495,73.16,185.24,69.54,431.49-3,614-96.16,241.94-283.32,421.93-540,503-49.64,15.68-103,22.82-159,33q-30.495,1.995-61,4-33.495-.495-67-1-37.995-2.505-76-5c-85.03-17.01-158.36-33.26-227-63-238.39-103.28-404.5-288.51-483-552-26.76-89.83-47.79-231.48-25-345,11.64-57.95,19.54-113.94,39-164,101.39-260.85,269.23-426.46,530-528,53.7-20.91,115.06-28.41,178-40Q3886,2320.5,3931,2318Zm-1883,2c-33.49,13.98-56.29,22.95-67,59-7.82,26.35-.77,59.55,24,61,22.94-12.82,78.62-71.94,79-104C2077.92,2322.9,2067.86,2319.33,2048,2320Zm1865,168-71,6c-47.58,9.29-92.88,17.12-134,33-200,77.23-335.83,213.94-413,414-15.12,39.18-23.29,82.87-32,128-18.4,95.31-3.19,212.46,20,289,62.6,206.64,193.56,354.42,381,436a754.082,754.082,0,0,0,143,46c28.54,6.11,54.48,5.35,86,10q34.5,1.005,69,2c66.94-10.1,119.47-11.42,176-29,196.65-61.15,346.73-197.31,425-377,20.36-46.74,35.33-97.72,47-153,30.74-145.59-5.18-300.46-50-403C4460.39,2662.1,4241.09,2489.78,3913,2488Zm91,257c134.95-2.04,214.97,63.17,254,157,19.73,47.43,27.39,124,7,178-14.51,38.43-34.52,71.52-61,98-15.55,15.55-44.77,29.32-52,52-5.5,17.26,3.21,37.76,6,52,4.8,24.46,4.09,61.77-1,85-25.3,115.53-140.78,239.14-299,204-137.79-30.6-258.44-180.99-185-351,13.24-30.65,35.35-65.18,60-85,14.65-11.78,38.27-24.98,45-44,6.4-18.09-3.12-41.24-6-56-4.17-21.34-4.14-52.66,0-74,18.61-96.01,72.7-162.99,153-197q24.99-7.5,50-15Q3989.505,2747.005,4004,2745Zm8,172c-32.93,14.69-56.88,22.25-68,58-17.23,55.37,32.38,117,89,107C4135.08,3063.98,4130.58,2914.93,4012,2917Zm-116,321c-35.58,14.97-58.74,22.46-70,61-15.91,54.43,35.83,113.57,90,104C4018.53,3384.88,4013.02,3235.95,3896,3238Z" transform="translate(-440 -440.844)"/>
</svg>