<svg xmlns="http://www.w3.org/2000/svg" width="5106.314" height="5079.03" viewBox="0 0 5106.314 5079.03">
  <path id="icon-maxprize" class="cls-1" d="M2737,482c156.49,2.531,250.9,79.251,296,194,8.63,21.956,13.63,46.441,19,71,4.41,20.169,2.71,43.825,13,58,10.99,15.139,36.08,16.487,58,10,38.78-11.479,94.28-28.861,148-20,79.93,13.185,136.71,38.158,175,92,103.88,146.09-15.48,402.11-76,521q-25.995,49.995-52,100c-5.7,11.15-18.71,27.36-15,46a36.129,36.129,0,0,0,18,24c14.97,7.64,36.17,6.54,54,11,28.94,7.24,57.63,17.33,81,31,73.77,43.16,120.05,108.75,139,207,21.9,113.54-56.73,217.23-116,259-24.43,17.21-74.35,27.89-86,57-10.84,27.08,19.85,82.58,30,100,217.21,372.74,483.51,692.36,711,1053,41.04,65.06,79.91,129.89,120,197,15,25.11,40.57,54.31,47,85,5.49,26.2-69.69,97.96-87,105-30.93,12.58-59.46-58.92-71-78-56.03-92.64-112.95-183.39-170-274-44.67-70.95-95.05-138.09-143-206q-104.985-150.48-210-301c-82.39-116.87-168.29-233.62-245-356-45.17-72.07-87.96-147.56-123-229-14.3-33.23-19.63-85.91-56-97-23.82-7.26-60.41-3-89-3-40.06,0-130.83-7.82-147,14-16.59,22.39,6.68,96,14,122,19.26,68.4,37.91,135.8,63,199q24.99,54.99,50,110c21.68,55.23-11.59,102.46-59,111-59.94,10.8-89.81-64.14-106-101-36.16-82.33-65.35-171.37-93-264q-20.505-82.995-41-166c-15.82-33.85-80.04-25-129-25H2370c-39.72,0-99.03-7.96-130,5-32.11,13.44-46.28,93.78-59,130q-63,189.48-126,379c-17.68,50.22-35.78,160.07-112,146-84.26-15.56-69.22-93.48-46-160q48-145.485,96-291c18.11-51.64,44.06-110.93,54-166,3.08-17.06-5.06-30.5-14-36-13.85-8.53-39.12-7-61-7-44.53.01-150.78-9.53-178,8-18.42,11.86-24.75,37.87-34,59-16.26,37.12-37.15,71.81-58,105-76.13,121.2-164.13,229.79-249,342-97.04,128.3-201,252.45-295,384-211.05,295.37-388.59,595.24-501,991-22.989,80.94-31.317,166.76-47,257q-3.5,51-7,102c-7.209,45.79-7.638,137.11,0,183,22.316,134.07,46.023,247.36,103,345,78.684,134.84,174.739,243.02,300,331,92.62,65.05,204.16,109.48,333,138,45.93,10.17,91.21,7.04,142,15,48.46,7.6,112.01,1.69,154-6,54.86-10.05,169.95-17.71,192-55,16.45-27.82-40.61-72.41-55-84-36.26-29.19-66.82-68.69-95-106-30.49-40.37-65.28-81.33-88-129-25.71-53.94,7.62-104.25,56-113,29.2-5.28,52.25,12.31,65,25,28.44,28.3,47.41,68.05,71,101l69,81c19.75,24.55,47.35,46.27,72,66,40.41,32.35,80.86,65.83,126,94,95.86,59.83,209.27,94.84,341,119,166.04,30.45,353.23-10.06,472-55l104-49c14.76-7.51,30.69-19.45,48-8,7.67,21.55,13.83,128.55,2,149-13.78,23.83-94.94,49.2-125,61-70.84,27.79-149.83,42.2-233,59l-80,6c-33.64,5.39-79.42,5.56-113,0l-81-6c-81.87-16.4-160.18-29.49-231-57-40.13-15.59-77.31-40.45-122-49-35.62-6.81-106.72,34.8-134,46-78.59,32.26-168.06,46.64-262,63-96.06,16.73-229.48,3.59-312-14-159.49-33.99-294.33-88.07-408-168-40.917-28.77-77.7-62.2-116-93-30.015-24.13-59.91-53.04-84-83-92.307-114.81-173.042-237.85-223-396-79.827-252.7-47.172-579.5,20-821,152.056-546.68,451.131-935.87,751-1333,83.84-111.04,173.43-217.44,254-332,29.79-42.36,80.34-104.84,96-157,13.06-43.51-53-69.65-76-88-40.3-32.15-107.34-140.01-93-225,16.97-100.58,55.64-166.72,126-213q28.995-14.505,58-29c17.55-6.91,39.83-8.5,54-19,7.68-5.69,13.56-16.19,15-28,2.39-19.65-11.16-38.47-17-52q-23.505-56.49-47-113c-32.94-83.32-59.49-169.74-83-263-7.47-29.62-22.85-87.12-17-124q3-29,6-58c11.75-53.181,32.78-97.2,61-134,97.74-127.444,333.26-165.444,528-104,50.37,15.891,98.23,37.291,143,60,17.46,8.854,42.98,29.269,72,23,25.91-5.6,35.13-31.956,47-52,25.76-43.5,52.44-83.814,83-122,43.85-54.8,109.18-97.557,184-121l60-10Zm-12,158-24,3c-17.11,4-34.33,9.92-48,18-79.49,47-133.27,141.688-170,231-25.97,63.153-70.77,225.88-127,248-51.17,20.13-109.72-28.23-100-82,4.66-25.76,16.11-46.04,23-69a51.779,51.779,0,0,0-9-47c-17.4-21.135-55.7-32.127-81-45-96.47-49.082-244.86-89.989-380-47-99.08,31.517-140.98,109.264-110,241,27.45,116.73,69.09,220.66,111,322,15.04,36.37,52.21,137.74,78,157,17.35,12.96,49.68,11,80,11h167c31.08,0,65.37,2.45,78-16,12.7-18.55,3.46-48.94,8-77,7.1-43.91,17.92-73.87,54-88,66.18-25.92,95.86,37.6,104,88,4.53,28.03-4.73,58.49,8,77,11.72,17.05,41.13,16,70,16,48.8,0,196.17,8.4,221-10,18.36-13.6,23.36-45.77,31-70l45-141q43.5-136.485,87-273c19.39-61.57,40.69-118.9,54-188,5.87-30.481,8.3-72.559,3-105-3.56-21.813-2.34-40.527-8-59C2869.37,667.717,2814.18,639.426,2725,640Zm500,312-51,9c-47.95,14.341-102.58,29.842-138,58-24.91,19.81-30.71,66.87-42,100q-40.5,126.99-81,254-24,73.995-48,148c-5.72,19.1-4.97,42.43,9,52,13.16,9.01,37.18,8,59,8,43.18-.01,123.53,8.46,156-5,31.46-13.05,56.31-76.02,74-106,60.36-102.29,114.73-213.46,152-337,16.62-55.09,31.1-150.551-23-174C3274.61,951.463,3250.25,951.714,3225,952ZM1730,1739q-19.005,1.995-38,4a124.774,124.774,0,0,0-70,47c-51.07,70.09-6.04,159.29,56,183,35.17,13.44,92.59,8,139,8H3225c121.67,0.01,196.38-2,214-107,10.7-63.78-39.16-114.76-80-128-30.3-9.83-73.87-7-113-7H1730Zm87,1291c100.94-2.29,108.29,132.69,17,149-47.74,8.53-95.27-46.08-81-94C1763.34,3050.28,1784.87,3043.57,1817,3030Zm2724,673h590c145.71-.01,246.1-9.33,330,55,58.6,44.93,110.34,152.3,78,258-8.4,27.45-51.98,91.42-44,115q12,20.505,24,41c19.17,32.78,37.4,90.37,28,145-5.59,32.47-12.04,62.52-26,87-7.96,13.96-28.57,34.64-26,56,2.29,19.06,13.98,31.45,22,45,14.28,24.13,23.84,53.46,30,85,11.78,60.31-8.56,126.38-30,163-7.92,13.53-19.66,26.33-23,44-4.08,21.61,14.64,38.56,22,51,17.42,29.44,25.17,62.38,32,103,8.96,53.26-10.06,108.23-28,139-8.61,14.77-22.14,29.36-26,48-4.88,23.57,24.53,54.98,32,72l15,42c28.4,96.2-17.36,182.56-58,233-28.36,35.2-80.92,58.05-132,70-45.2,10.58-108.25,4-160,4H4631c-44.01,0-94.59,4.85-134-3-33.64-6.7-63.59-16.82-89-32-11.51-6.88-27.82-23.84-48-20-20.81,3.96-36.4,18.82-53,28-23.32,12.9-51.79,19.51-82,25q-36,1.005-72,2H3617c-141.56.01-255.84,11.68-340-48-59.16-41.95-120.07-149.99-88-259l15-42c7.4-16.94,36.96-48.56,32-72-3.95-18.66-17.35-33.2-26-48-18.01-30.81-36.86-85.7-28-139,6.75-40.63,14.62-73.57,32-103,7.32-12.39,26.15-29.44,22-51-3.4-17.68-15.05-30.45-23-44-12.21-20.81-21.15-46.75-27-73-34.33-153.93,76.98-260.76,187-288,59.6-14.75,163-6,234-6h458c56.82,0,120.53-3.44,170,5,17.03,2.9,46.01,15.39,61,5,9.82-6.81,8.32-25.76,5-39-10.75-42.94-12.27-99.54,1-142,7.45-23.84,47.67-81.36,43-103-3.12-14.45-13.31-25.75-20-37-10.98-18.47-19.36-40.85-26-63-27.55-91.92,16.13-202.92,66-243,31.07-24.97,64.72-45.91,109-58C4492.32,3706,4523,3709.99,4541,3703Zm18,149q-15.495,1.005-31,2c-19.91,3.87-36.57,11.53-50,22-59.62,46.48-38.83,133.03,24,160,45.1,19.36,149.4,9,211,9h472c108.26,0.01,195.16,7.7,212-85,4.45-24.51-5.73-44.29-14-57-37.22-57.19-92.88-51.01-185-51H4559Zm-16,342q-13.995,1.995-28,4c-24.31,6.83-45.08,23.54-58,42-36.53,52.18-.4,117.85,44,137,44.7,19.28,147.72,9,209,9l477-3c107.96,0.01,192.31,11.55,210-81,4.55-23.79-5.36-43.46-13-56-36.41-59.76-94.38-52.01-188-52H4543ZM3448,4535q-15,1.005-30,2c-20.71,4.02-37.17,12.08-51,23-57.72,45.61-35.95,131.94,24,158,46.27,20.11,150.18,10,214,10h467c111.05,0.01,198.71,8.39,216-87,4.17-23.01-6.16-42.83-14-55-36.97-57.39-92.97-51.01-185-51H3448Zm1109,0q-15,1.005-30,2c-22.76,4.5-39.03,13.91-54,26-59.46,48.04-25.84,133.18,32,157,40.71,16.77,150.11,8,207,8l478-3c104.89,0.01,190.78,9.14,207-81,3.64-20.21-4.98-38.32-11-50-33.57-65.12-95.18-56.01-191-56ZM3432,4877q-13.5,1.995-27,4c-21.4,6.45-40.79,20.16-53,36-43.05,55.84-8.25,122.19,43,144,40.49,17.23,154.66,8,212,8h464c112.17,0.01,199.43,9.42,217-87,4.34-23.82-6.75-43.65-15-56-38.13-57.1-94.36-49.01-187-49H3432Zm1109,0q-13.5,1.995-27,4a109.628,109.628,0,0,0-55,39c-39.36,53.99-4.95,119.37,43,140,45.28,19.48,150.03,9,212,9q234.48-1.005,469-2c111.02,0.01,198.2,10.4,215-86,3.58-20.53-5.22-38.81-12-50-37.18-61.39-95.46-52.01-191-52Q4868.03,4878,4541,4877ZM3439,5218l-29,3c-22.59,5.69-43.42,19.04-56,35-43.6,55.32-13.58,123.03,40,146,40.3,17.27,154.75,8,212,8h467c111.47,0.01,198.2,9.35,215-87,3.52-20.17-4.68-37.76-11-49-35.63-63.38-93.63-56.01-190-56H3439Zm1109,0-28,3c-22.08,5.24-42.78,17.66-55,33-42.8,53.75-19.44,122.91,36,147,41.7,18.12,153.54,9,213,9h468c109.67,0.01,199.31,5.66,216-87,4.06-22.55-6.29-42.04-14-54-37-57.44-94.95-50.01-187-50Q4872.535,5218.505,4548,5218Z" transform="translate(-444.156 -482)"/>
</svg>