<svg xmlns="http://www.w3.org/2000/svg" width="4563.378" height="5063.438" viewBox="0 0 4563.378 5063.438">
  <path id="icon-bingo" class="cls-1" d="M1185,471H4577c99.7-.006,235.43-10.543,318,10,84.77,21.092,151.81,55.89,211,102,81.98,63.859,138.67,163.9,165,283,17.79,80.5,8,190.96,8,284V4871c0.01,86.74,8.54,188.46-8,263-26.94,121.41-85.41,222.88-170,287-60.22,45.65-129.03,80.78-216,100-81.28,17.96-200.42,8-295,8H1343c-84.12.01-177.09,5.29-245-12-185.521-47.23-306.049-166.01-360-345-29.685-98.48-17-267.34-17-393V1125c-0.012-169.63-3.546-294.882,59-402,61.337-105.047,143.171-177.263,263-224,29.69-11.58,63.06-17.594,97-24Zm-6,159-32,3q-30.99,8-62,16c-72.25,28.371-128.6,79.686-166,143-40.8,69.058-39,155.929-39,267V4941c0,65.38-4.655,139.14,9,192,11.8,45.69,33.654,84.44,59,117,38.585,49.57,94.33,88.75,162,109,69.09,20.68,175.14,11,261,11H4769q37.995-1.005,76-2c64.99-11.65,112.2-33.12,155-66,53.68-41.24,93.98-102.24,113-178,8.58-34.18,7-76.78,7-119V993q-1.005-44-2-88c-16.07-89.61-54.13-156.581-113-203-40.76-32.141-85.49-54.811-146-68-28.27-6.16-62.91-4-96-4H1179Zm23,240h133l75,2c110.92,20.024,173.61,67.947,221,151,21.36,37.43,42.93,100.29,31,162-7.39,38.23-17.9,73.04-35,102-10.54,17.86-26.54,33.59-31,57-4.58,24.04,13.79,40.96,22,54,17.31,27.49,31.04,59.52,40,95,9.72,38.49,6.48,90.77-4,125-31.8,103.93-94.98,169.78-199,201-32.12,9.64-69.54,11-111,11-78.31,0-182.34,12.74-217-32-24.99-32.26-21-91.16-21-149V1045c0-51.9-3.74-107.1,17-138,11.19-16.672,31.77-28.452,54-34Zm2463,1c124.16-2.487,225.77,34.214,295,89,43.84,34.688,35.98,100.9-9,128-40.18,24.2-82.67-4.41-111-21-42.27-24.75-116.61-47.94-188-36-47.23,7.9-87.55,16.82-122,37-98.22,57.53-202.3,192.9-155,364,9.12,32.99,21.67,62.93,38,89,42.76,68.27,110.29,119.61,199,142,120.39,30.39,285.72-33.9,317-110,4.45-10.82,5-24.17,5-39,0.01-36.65,2.95-69.3-23-80-13.35-5.51-33.74-4.01-52-4-63.68.02-109.41-.71-135-38-7.7-11.22-18.07-29-14-51,15.73-85.06,115.28-71,215-71,51.24,0,103.34-3.1,133,18,50.9,36.21,36,151.24,36,237,0,91.89-33.93,134.81-84,175-65.42,52.51-130.04,93.76-226,118q-37.995,5.505-76,11c-71.75,11.98-169.26-23.36-214-43-127.93-56.15-218.86-154.16-263-294-17.64-55.89-33.56-137.6-19-210,6.51-32.39,12.89-64.46,24-93,54.28-139.43,148-233.3,287-288,30.07-11.833,63.53-18.068,98-25Zm937,0c159.92-2.518,258.3,104.66,287,235,6.49,29.48,5,64.27,5,99v148c0,87.62,10.21,196.15-11,267-37.23,124.37-120.06,185.73-260,209-50.75,8.44-118.15-22.56-147-40-75.38-45.57-120.08-108.51-139-211q-1.5-42.99-3-86V1350c0-83.76-9.9-185.8,8-257,25.71-102.263,88.09-168.854,180-205l54-14Zm-2626,3c100.46-1.153,90.01,95.889,90,195v539c0.01,100.79,14.09,202.21-72,218-18.73,3.43-34.93-4.88-45-11-56.42-34.29-43.01-119.9-43-208V1109c0-66.57-10.66-160.76,17-202C1935.86,887.823,1953.65,884.39,1976,874Zm400,0c69.02-.043,85.6,51.771,112,94q96.99,153.99,194,308c21.71,34.62,41.65,70.2,65,103,6.6,9.28,18.43,28.02,38,23,31.83-8.17,21.01-91.01,21-131V1033c-0.01-45.173-2.8-92.777,14-121,19.77-33.207,72.62-50.967,111-23,46.65,33.991,35,132.11,35,212v516c0.01,83.31,9.41,167.83-43,199-60.47,35.97-99.51-20.95-122-56q-108.495-172.485-217-345c-20.05-31.97-38.47-64.74-60-95-6.49-9.12-17.79-26.85-37-22-32.3,8.16-21.01,91.72-21,132v234c0.01,47.81,1.9,95-16,124-19.75,32-68.93,51.52-108,24-50.63-35.66-36-149-36-234V1102c-0.01-78.69-11.96-177.424,33-212C2349.81,881.682,2362.22,880.1,2376,874ZM1309,1030c-16.24,6.25-28.77,4.35-37,18-7.52,12.47-6,34.31-6,54,0,35.82-6.7,120.91,4,146,16.18,37.94,148.33,23.38,177,6,59.8-36.25,78.42-122.16,29-184C1443.33,1029.12,1384.24,1029.36,1309,1030Zm3290,1q-15,3.495-30,7c-26.7,10.5-52.53,34.32-64,60-20.77,46.51-11,134.31-11,198v190c0,36.82-2.87,78.07,7,106,14.82,41.95,61.87,87.83,128,77,103.87-17.01,105-87.86,105-207V1281c0-69.18,9.11-157.86-20-199C4690.01,1048.1,4658.29,1030.58,4599,1031ZM1309,1430c-16.24,6.25-28.77,4.35-37,18-7.52,12.47-6,34.31-6,54,0,35.82-6.7,120.91,4,146,16.18,37.94,148.33,23.38,177,6,59.79-36.24,78.4-122.18,29-184C1443.33,1429.12,1384.24,1429.36,1309,1430Zm250,640H4298c132.81-.01,217.88-4.41,300,47,18.19,11.39,38.81,23.67,52,40,32.59,40.36,58.33,81.75,73,141,10.24,41.35,7,95.79,7,146V4776c0,48.43.95,96.43-9,135-12.63,48.94-35.6,88.7-63,123-86.12,107.81-228.57,96-419,96H1653c-57.22,0-118.08,2.85-164-9-77.45-19.98-136.37-63.95-174-124-47.99-76.59-45-173.24-45-299V2474c-0.01-110.3-.49-194.51,40-263,36.42-61.61,92.04-106.09,167-129q25.5-4.995,51-10Q1543.5,2071,1559,2070Zm-16,160q-19.5,4.005-39,8c-28.67,11.83-54.17,37.32-66,66-15.64,37.91-8,106.52-8,157v491c0,25.29-2.56,54.98,8,70,18,25.61,98.91,15,141,15h685c35.05,0,83.37,5.91,98-15,13.05-18.65,8-62.5,8-93V2374c0-33.78,6.72-107.89-7-128-18.15-26.6-155.81-16-205-16H1543Zm1027,0c-8.91,3.59-18.1,2.92-25,8-23.09,17.02-15,78.89-15,118v564c0,37.47-7.02,92.81,15,109,20.6,15.15,151.97,8,193,8h517c47.86,0,189.37,10.19,207-15,13.16-18.8,8-63.29,8-94V2373c0-33.61,6.66-107-7-127-18.38-26.92-171.13-16-222-16H2570Zm1100,0c-8.91,3.59-18.1,2.92-25,8-23.09,17.02-15,78.89-15,118v564c0,37.47-7.02,92.81,15,109,20.6,15.15,151.97,8,193,8h517c47.85,0,189.37,10.19,207-15,13.16-18.8,8-63.29,8-94V2428c0-66.13,1.29-119.25-27-155-45.22-57.14-145.85-43-246-43H3670ZM1896,2557c99.62-.05,104.88,135.56,13,152-50.54,9.04-99.55-48.41-82-98C1840.18,2573.77,1859.86,2571.1,1896,2557Zm-428,640q-10.995,3.495-22,7c-23.97,16.47-16,77.42-16,117v566c0,38.17-7.07,93.23,16,109,20.78,14.21,153.84,7,194,7h514c48.78,0,189.29,10.51,208-15,13.41-18.28,8-63.65,8-94V3337c0-36.58,8.78-102.22-8-125-12.25-16.63-38.88-15-68-15H1468Zm1100,0q-10.995,3.495-22,7c-23.97,16.47-16,77.42-16,117v566c0,38.17-7.07,93.23,16,109,20.78,14.21,153.84,7,194,7h514c48.78,0,189.29,10.51,208-15,13.41-18.28,8-63.65,8-94V3337c0-36.58,8.78-102.22-8-125-12.25-16.63-38.88-15-68-15H2568Zm1100,0q-10.995,3.495-22,7c-23.97,16.47-16,77.42-16,117v566c0,38.17-7.07,93.23,16,109,20.78,14.21,153.84,7,194,7h514c48.78,0,189.29,10.51,208-15,13.41-18.28,8-63.65,8-94V3337c0-36.58,8.78-102.22-8-125-12.25-16.63-38.88-15-68-15H3668Zm-677,327c105.91-2.43,110.58,134.66,18,152-48.86,9.15-97.68-46.32-83-95C2936.56,3545.99,2958.53,3537.77,2991,3524ZM1471,4163c-16.51,6.62-28.39,5.04-36,20-12.04,23.68-5,75.56-5,108v494c0,57.31-.95,105.2,23,137,40.51,53.79,99.27,48,192,48h615c37.08,0,87.79,6.39,103-16,12.55-18.47,7-63.66,7-93V4306c0-37.72,8.85-104.04-8-128-11.52-16.39-38.92-15-67-15H1471Zm1100,0c-16.51,6.63-28.39,5.04-36,20-12.04,23.68-5,75.56-5,108v561c0,37.72-7.21,93.7,15,110,20.7,15.18,151.89,8,193,8h518c49.33,0,188.91,10.63,207-16,12.55-18.47,7-63.66,7-93V4306c0-37.72,8.85-104.04-8-128-11.52-16.39-38.92-15-67-15H2571Zm1100,0c-13.78,5.53-25.29,3.98-33,15-16.89,24.14-8,125.65-8,167v544c0,20.17-2.16,44.3,4,59,3.92,9.37,13.78,16.94,24,20q29.49,1.005,59,2h617c90.84,0.01,166.97,9.49,208-42,10.81-13.56,20.19-29.62,25-49,6.09-24.49,3-58.13,3-87V4303c0-37.11,8.53-101.5-8-125-11.52-16.39-38.92-15-67-15H3671Zm418,328c107.14-2.45,113.04,131.78,24,151-50.55,10.91-102.89-42.98-87-95C4036.35,4513.12,4058.11,4504.95,4089,4491Z" transform="translate(-718.312 -468.312)"/>
</svg>